<svg width="512" height="512" viewBox="0 0 512 512" fill="none" xmlns="http://www.w3.org/2000/svg">
<rect width="512" height="512" rx="100" fill="#6C5CE7"/>
<path d="M256 140C191.2 140 138 193.2 138 258C138 322.8 191.2 376 256 376C320.8 376 374 322.8 374 258C374 193.2 320.8 140 256 140Z" fill="white"/>
<path d="M256 180C281.4 180 302 200.6 302 226C302 251.4 281.4 272 256 272C230.6 272 210 251.4 210 226C210 200.6 230.6 180 256 180Z" fill="#6C5CE7"/>
<path d="M220 280H292V320H220V280Z" fill="white"/>
</svg>